<svg width="17" height="17" viewBox="0 0 17 17" fill="none" xmlns="http://www.w3.org/2000/svg">
<path d="M8.50001 6.12498C7.87012 6.12498 7.26603 6.3752 6.82063 6.8206C6.37523 7.266 6.12501 7.87009 6.12501 8.49998C6.12501 9.12987 6.37523 9.73396 6.82063 10.1794C7.26603 10.6248 7.87012 10.875 8.50001 10.875C9.1299 10.875 9.73399 10.6248 10.1794 10.1794C10.6248 9.73396 10.875 9.12987 10.875 8.49998C10.875 7.87009 10.6248 7.266 10.1794 6.8206C9.73399 6.3752 9.1299 6.12498 8.50001 6.12498ZM8.50001 4.54165C9.54983 4.54165 10.5566 4.95868 11.299 5.70102C12.0413 6.44335 12.4583 7.45017 12.4583 8.49998C12.4583 9.5498 12.0413 10.5566 11.299 11.2989C10.5566 12.0413 9.54983 12.4583 8.50001 12.4583C7.4502 12.4583 6.44338 12.0413 5.70105 11.2989C4.95871 10.5566 4.54168 9.5498 4.54168 8.49998C4.54168 7.45017 4.95871 6.44335 5.70105 5.70102C6.44338 4.95868 7.4502 4.54165 8.50001 4.54165ZM13.6458 4.34373C13.6458 4.60618 13.5416 4.85789 13.356 5.04347C13.1704 5.22905 12.9187 5.33331 12.6563 5.33331C12.3938 5.33331 12.1421 5.22905 11.9565 5.04347C11.7709 4.85789 11.6667 4.60618 11.6667 4.34373C11.6667 4.08128 11.7709 3.82957 11.9565 3.64399C12.1421 3.45841 12.3938 3.35415 12.6563 3.35415C12.9187 3.35415 13.1704 3.45841 13.356 3.64399C13.5416 3.82957 13.6458 4.08128 13.6458 4.34373ZM8.50001 2.16665C6.54143 2.16665 6.22159 2.17219 5.31039 2.21256C4.68972 2.24185 4.2733 2.32498 3.88697 2.4754C3.54339 2.6084 3.29559 2.76752 3.03197 3.03194C2.78418 3.27134 2.59366 3.56361 2.47464 3.88694C2.32422 4.27485 2.24109 4.69048 2.21259 5.31036C2.17143 6.18436 2.16668 6.48994 2.16668 8.49998C2.16668 10.4586 2.17222 10.7784 2.21259 11.6896C2.24189 12.3095 2.32501 12.7267 2.47464 13.1122C2.60922 13.4566 2.76755 13.7044 3.03039 13.9672C3.29718 14.2332 3.54497 14.3924 3.88539 14.5238C4.27647 14.675 4.69289 14.7589 5.31039 14.7874C6.18439 14.8286 6.48997 14.8333 8.50001 14.8333C10.4586 14.8333 10.7784 14.8278 11.6896 14.7874C12.3087 14.7581 12.7259 14.675 13.1123 14.5254C13.4551 14.3916 13.7044 14.2324 13.9673 13.9696C14.2341 13.7028 14.3932 13.455 14.5246 13.1146C14.675 12.7243 14.7589 12.3071 14.7874 11.6896C14.8286 10.8156 14.8333 10.51 14.8333 8.49998C14.8333 6.5414 14.8278 6.22156 14.7874 5.31036C14.7581 4.69127 14.675 4.27327 14.5246 3.88694C14.4053 3.56394 14.2151 3.27178 13.9681 3.03194C13.7288 2.78402 13.4365 2.59349 13.1131 2.4746C12.7251 2.32419 12.3087 2.24106 11.6896 2.21256C10.8156 2.1714 10.5101 2.16665 8.50001 2.16665ZM8.50001 0.583313C10.651 0.583313 10.9193 0.59123 11.7633 0.630813C12.6064 0.670396 13.1803 0.802605 13.6854 0.998938C14.2079 1.20002 14.6481 1.47235 15.0883 1.91173C15.4908 2.30748 15.8023 2.7862 16.0011 3.31456C16.1966 3.81885 16.3296 4.3936 16.3692 5.23673C16.4064 6.08065 16.4167 6.34902 16.4167 8.49998C16.4167 10.6509 16.4088 10.9193 16.3692 11.7632C16.3296 12.6064 16.1966 13.1803 16.0011 13.6854C15.8029 14.2141 15.4913 14.6929 15.0883 15.0882C14.6924 15.4907 14.2137 15.8021 13.6854 16.001C13.1811 16.1966 12.6064 16.3296 11.7633 16.3691C10.9193 16.4064 10.651 16.4166 8.50001 16.4166C6.34905 16.4166 6.08068 16.4087 5.23676 16.3691C4.39364 16.3296 3.81968 16.1966 3.31459 16.001C2.78602 15.8027 2.30722 15.4911 1.91176 15.0882C1.50912 14.6925 1.19762 14.2138 0.998969 13.6854C0.802635 13.1811 0.670427 12.6064 0.630843 11.7632C0.593635 10.9193 0.583344 10.6509 0.583344 8.49998C0.583344 6.34902 0.59126 6.08065 0.630843 5.23673C0.670427 4.39281 0.802635 3.81965 0.998969 3.31456C1.19707 2.78587 1.50865 2.30703 1.91176 1.91173C2.30733 1.50895 2.7861 1.19743 3.31459 0.998938C3.81968 0.802605 4.39284 0.670396 5.23676 0.630813C6.08068 0.593605 6.34905 0.583313 8.50001 0.583313Z" fill="#E0BEA2"/>
</svg>
