<svg width="17" height="17" viewBox="0 0 17 17" fill="none" xmlns="http://www.w3.org/2000/svg">
<path d="M8.50001 14.8333C10.1797 14.8333 11.7906 14.1661 12.9784 12.9783C14.1661 11.7906 14.8333 10.1797 14.8333 8.49998C14.8333 6.82028 14.1661 5.20937 12.9784 4.02164C11.7906 2.83391 10.1797 2.16665 8.50001 2.16665C6.82031 2.16665 5.2094 2.83391 4.02167 4.02164C2.83394 5.20937 2.16668 6.82028 2.16668 8.49998C2.16668 10.1797 2.83394 11.7906 4.02167 12.9783C5.2094 14.1661 6.82031 14.8333 8.50001 14.8333ZM8.50001 16.4166C4.12764 16.4166 0.583344 12.8724 0.583344 8.49998C0.583344 4.1276 4.12764 0.583313 8.50001 0.583313C12.8724 0.583313 16.4167 4.1276 16.4167 8.49998C16.4167 12.8724 12.8724 16.4166 8.50001 16.4166ZM6.03793 9.42623L4.06034 8.80952C3.63284 8.6789 3.63047 8.3844 4.15614 8.17302L11.8614 5.19636C12.3087 5.01427 12.5621 5.24465 12.4172 5.82177L11.1054 12.0126C11.0136 12.4536 10.7483 12.5589 10.3802 12.3554L8.36068 10.8607L7.41939 11.7696C7.3228 11.863 7.24443 11.9429 7.09559 11.9627C6.94755 11.9833 6.82564 11.939 6.73618 11.6936L6.04743 9.42069L6.03793 9.42623Z" fill="#E0BEA2"/>
</svg>
